<svg width="1440" height="119" viewBox="0 0 1440 119" fill="none" xmlns="http://www.w3.org/2000/svg">
<path d="M0 0H1440V119H0V0Z" fill="#191919"/>
<g clip-path="url(#clip0_2_3)">
<path d="M62.475 68.42C60.0017 68.42 57.8783 67.895 56.105 66.845C54.3317 65.7717 52.9667 64.29 52.01 62.4C51.0533 60.4867 50.575 58.2817 50.575 55.785C50.575 53.2883 51.0533 51.0833 52.01 49.17C52.9667 47.2567 54.3317 45.7633 56.105 44.69C57.8783 43.6167 60.0017 43.08 62.475 43.08C65.415 43.08 67.8183 43.815 69.685 45.285C71.575 46.7317 72.7533 48.7733 73.22 51.41H68.285C67.9817 50.08 67.3283 49.0417 66.325 48.295C65.345 47.525 64.0383 47.14 62.405 47.14C60.1417 47.14 58.3683 47.91 57.085 49.45C55.8017 50.99 55.16 53.1017 55.16 55.785C55.16 58.4683 55.8017 60.58 57.085 62.12C58.3683 63.6367 60.1417 64.395 62.405 64.395C64.0383 64.395 65.345 64.045 66.325 63.345C67.3283 62.6217 67.9817 61.63 68.285 60.37H73.22C72.7533 62.89 71.575 64.8617 69.685 66.285C67.8183 67.7083 65.415 68.42 62.475 68.42ZM82.3657 68.42C80.8723 68.42 79.6473 68.1867 78.6907 67.72C77.734 67.23 77.0223 66.5883 76.5557 65.795C76.089 65.0017 75.8557 64.1267 75.8557 63.17C75.8557 61.56 76.4857 60.2533 77.7457 59.25C79.0057 58.2467 80.8957 57.745 83.4157 57.745H87.8257V57.325C87.8257 56.135 87.4873 55.26 86.8107 54.7C86.134 54.14 85.294 53.86 84.2907 53.86C83.3807 53.86 82.5873 54.0817 81.9107 54.525C81.234 54.945 80.814 55.575 80.6507 56.415H76.2757C76.3923 55.155 76.8123 54.0583 77.5357 53.125C78.2823 52.1917 79.239 51.48 80.4057 50.99C81.5723 50.4767 82.879 50.22 84.3257 50.22C86.799 50.22 88.7473 50.8383 90.1707 52.075C91.594 53.3117 92.3057 55.0617 92.3057 57.325V68H88.4907L88.0707 65.2C87.5573 66.1333 86.834 66.9033 85.9007 67.51C84.9907 68.1167 83.8123 68.42 82.3657 68.42ZM83.3807 64.92C84.664 64.92 85.6557 64.5 86.3557 63.66C87.079 62.82 87.534 61.7817 87.7207 60.545H83.9057C82.7157 60.545 81.864 60.7667 81.3507 61.21C80.8373 61.63 80.5807 62.155 80.5807 62.785C80.5807 63.4617 80.8373 63.9867 81.3507 64.36C81.864 64.7333 82.5407 64.92 83.3807 64.92ZM103.056 68.42C101.516 68.42 100.162 68.175 98.9959 67.685C97.8292 67.1717 96.8959 66.4717 96.1959 65.585C95.4959 64.6983 95.0759 63.6717 94.9359 62.505H99.4509C99.5909 63.1817 99.9642 63.765 100.571 64.255C101.201 64.7217 102.006 64.955 102.986 64.955C103.966 64.955 104.677 64.7567 105.121 64.36C105.587 63.9633 105.821 63.5083 105.821 62.995C105.821 62.2483 105.494 61.7467 104.841 61.49C104.188 61.21 103.278 60.9417 102.111 60.685C101.364 60.5217 100.606 60.3233 99.8359 60.09C99.0659 59.8567 98.3542 59.565 97.7009 59.215C97.0709 58.8417 96.5575 58.375 96.1609 57.815C95.7642 57.2317 95.5659 56.52 95.5659 55.68C95.5659 54.14 96.1725 52.845 97.3859 51.795C98.6225 50.745 100.349 50.22 102.566 50.22C104.619 50.22 106.252 50.6983 107.466 51.655C108.702 52.6117 109.438 53.93 109.671 55.61H105.436C105.179 54.3267 104.211 53.685 102.531 53.685C101.691 53.685 101.037 53.8483 100.571 54.175C100.127 54.5017 99.9059 54.91 99.9059 55.4C99.9059 55.9133 100.244 56.3217 100.921 56.625C101.597 56.9283 102.496 57.2083 103.616 57.465C104.829 57.745 105.938 58.06 106.941 58.41C107.967 58.7367 108.784 59.2383 109.391 59.915C109.998 60.5683 110.301 61.5133 110.301 62.75C110.324 63.8233 110.044 64.7917 109.461 65.655C108.877 66.5183 108.037 67.195 106.941 67.685C105.844 68.175 104.549 68.42 103.056 68.42ZM120.758 68C118.938 68 117.479 67.5567 116.383 66.67C115.286 65.7833 114.738 64.2083 114.738 61.945V54.385H111.763V50.64H114.738L115.263 45.985H119.218V50.64H123.908V54.385H119.218V61.98C119.218 62.82 119.393 63.4033 119.743 63.73C120.116 64.0333 120.746 64.185 121.633 64.185H123.803V68H120.758ZM133.039 68.42C131.546 68.42 130.321 68.1867 129.364 67.72C128.407 67.23 127.696 66.5883 127.229 65.795C126.762 65.0017 126.529 64.1267 126.529 63.17C126.529 61.56 127.159 60.2533 128.419 59.25C129.679 58.2467 131.569 57.745 134.089 57.745H138.499V57.325C138.499 56.135 138.161 55.26 137.484 54.7C136.807 54.14 135.967 53.86 134.964 53.86C134.054 53.86 133.261 54.0817 132.584 54.525C131.907 54.945 131.487 55.575 131.324 56.415H126.949C127.066 55.155 127.486 54.0583 128.209 53.125C128.956 52.1917 129.912 51.48 131.079 50.99C132.246 50.4767 133.552 50.22 134.999 50.22C137.472 50.22 139.421 50.8383 140.844 52.075C142.267 53.3117 142.979 55.0617 142.979 57.325V68H139.164L138.744 65.2C138.231 66.1333 137.507 66.9033 136.574 67.51C135.664 68.1167 134.486 68.42 133.039 68.42ZM134.054 64.92C135.337 64.92 136.329 64.5 137.029 63.66C137.752 62.82 138.207 61.7817 138.394 60.545H134.579C133.389 60.545 132.537 60.7667 132.024 61.21C131.511 61.63 131.254 62.155 131.254 62.785C131.254 63.4617 131.511 63.9867 132.024 64.36C132.537 64.7333 133.214 64.92 134.054 64.92ZM149.778 68L144.703 50.64H149.148L152.158 63.135L155.658 50.64H160.628L164.128 63.135L167.173 50.64H171.618L166.508 68H161.853L158.143 55.015L154.433 68H149.778ZM178.841 68.42C177.348 68.42 176.123 68.1867 175.166 67.72C174.21 67.23 173.498 66.5883 173.031 65.795C172.565 65.0017 172.331 64.1267 172.331 63.17C172.331 61.56 172.961 60.2533 174.221 59.25C175.481 58.2467 177.371 57.745 179.891 57.745H184.301V57.325C184.301 56.135 183.963 55.26 183.286 54.7C182.61 54.14 181.77 53.86 180.766 53.86C179.856 53.86 179.063 54.0817 178.386 54.525C177.71 54.945 177.29 55.575 177.126 56.415H172.751C172.868 55.155 173.288 54.0583 174.011 53.125C174.758 52.1917 175.715 51.48 176.881 50.99C178.048 50.4767 179.355 50.22 180.801 50.22C183.275 50.22 185.223 50.8383 186.646 52.075C188.07 53.3117 188.781 55.0617 188.781 57.325V68H184.966L184.546 65.2C184.033 66.1333 183.31 66.9033 182.376 67.51C181.466 68.1167 180.288 68.42 178.841 68.42ZM179.856 64.92C181.14 64.92 182.131 64.5 182.831 63.66C183.555 62.82 184.01 61.7817 184.196 60.545H180.381C179.191 60.545 178.34 60.7667 177.826 61.21C177.313 61.63 177.056 62.155 177.056 62.785C177.056 63.4617 177.313 63.9867 177.826 64.36C178.34 64.7333 179.016 64.92 179.856 64.92ZM193.945 75.7L197.97 66.845H196.92L190.165 50.64H195.03L199.895 62.855L204.97 50.64H209.73L198.705 75.7H193.945Z" fill="white"/>
</g>
<path d="M1008.26 65V53.1H1009.69V58.353H1015.86V53.1H1017.29V65H1015.86V59.526H1009.69V65H1008.26ZM1023.55 65.204C1022.76 65.204 1022.05 65.0227 1021.41 64.66C1020.78 64.2973 1020.27 63.7873 1019.9 63.13C1019.54 62.4613 1019.35 61.6793 1019.35 60.784C1019.35 59.8887 1019.54 59.1123 1019.92 58.455C1020.29 57.7863 1020.79 57.2707 1021.43 56.908C1022.07 56.5453 1022.79 56.364 1023.59 56.364C1024.38 56.364 1025.09 56.5453 1025.73 56.908C1026.36 57.2707 1026.86 57.7863 1027.23 58.455C1027.6 59.1123 1027.79 59.8887 1027.79 60.784C1027.79 61.6793 1027.6 62.4613 1027.23 63.13C1026.85 63.7873 1026.34 64.2973 1025.7 64.66C1025.06 65.0227 1024.35 65.204 1023.55 65.204ZM1023.55 63.98C1024.04 63.98 1024.49 63.861 1024.91 63.623C1025.33 63.385 1025.67 63.028 1025.93 62.552C1026.19 62.076 1026.32 61.4867 1026.32 60.784C1026.32 60.0813 1026.19 59.492 1025.93 59.016C1025.68 58.54 1025.35 58.183 1024.93 57.945C1024.51 57.707 1024.06 57.588 1023.59 57.588C1023.1 57.588 1022.65 57.707 1022.23 57.945C1021.81 58.183 1021.47 58.54 1021.21 59.016C1020.95 59.492 1020.82 60.0813 1020.82 60.784C1020.82 61.4867 1020.95 62.076 1021.21 62.552C1021.47 63.028 1021.8 63.385 1022.21 63.623C1022.63 63.861 1023.08 63.98 1023.55 63.98ZM1029.77 65V56.568H1031.06L1031.17 57.792C1031.44 57.3387 1031.8 56.9873 1032.25 56.738C1032.71 56.4887 1033.22 56.364 1033.78 56.364C1034.45 56.364 1035.02 56.5 1035.5 56.772C1035.99 57.044 1036.36 57.4577 1036.62 58.013C1036.92 57.503 1037.32 57.1007 1037.83 56.806C1038.35 56.5113 1038.91 56.364 1039.51 56.364C1040.52 56.364 1041.33 56.67 1041.93 57.282C1042.53 57.8827 1042.83 58.812 1042.83 60.07V65H1041.42V60.223C1041.42 59.3503 1041.24 58.693 1040.89 58.251C1040.54 57.809 1040.03 57.588 1039.38 57.588C1038.7 57.588 1038.13 57.8543 1037.68 58.387C1037.23 58.9083 1037.01 59.6563 1037.01 60.631V65H1035.59V60.223C1035.59 59.3503 1035.41 58.693 1035.06 58.251C1034.71 57.809 1034.2 57.588 1033.55 57.588C1032.88 57.588 1032.32 57.8543 1031.86 58.387C1031.42 58.9083 1031.2 59.6563 1031.2 60.631V65H1029.77ZM1048.77 65.204C1047.96 65.204 1047.25 65.0227 1046.63 64.66C1046 64.286 1045.51 63.7703 1045.15 63.113C1044.8 62.4557 1044.62 61.6793 1044.62 60.784C1044.62 59.9 1044.8 59.1293 1045.15 58.472C1045.5 57.8033 1045.99 57.2877 1046.61 56.925C1047.25 56.551 1047.98 56.364 1048.8 56.364C1049.62 56.364 1050.32 56.551 1050.91 56.925C1051.51 57.2877 1051.97 57.7693 1052.29 58.37C1052.61 58.9707 1052.76 59.6167 1052.76 60.308C1052.76 60.4327 1052.76 60.5573 1052.75 60.682C1052.75 60.8067 1052.75 60.9483 1052.75 61.107H1046.03C1046.07 61.753 1046.21 62.2913 1046.47 62.722C1046.75 63.1413 1047.08 63.4587 1047.48 63.674C1047.89 63.8893 1048.32 63.997 1048.77 63.997C1049.36 63.997 1049.85 63.861 1050.25 63.589C1050.65 63.317 1050.93 62.9487 1051.12 62.484H1052.53C1052.3 63.266 1051.86 63.9177 1051.22 64.439C1050.58 64.949 1049.77 65.204 1048.77 65.204ZM1048.77 57.571C1048.09 57.571 1047.48 57.7807 1046.95 58.2C1046.43 58.608 1046.13 59.2087 1046.05 60.002H1051.35C1051.32 59.2427 1051.06 58.6477 1050.57 58.217C1050.08 57.7863 1049.48 57.571 1048.77 57.571Z" fill="#118DA8"/>
<path d="M1211.51 65L1215.9 53.1H1217.41L1221.78 65H1220.27L1219.18 61.94H1214.11L1213.01 65H1211.51ZM1214.54 60.784H1218.75L1216.64 54.902L1214.54 60.784ZM1227.97 65.204C1227.28 65.204 1226.66 65.0623 1226.11 64.779C1225.58 64.4957 1225.17 64.099 1224.89 63.589L1224.75 65H1223.46V52.76H1224.89V57.962C1225.16 57.554 1225.55 57.1857 1226.05 56.857C1226.56 56.5283 1227.2 56.364 1227.98 56.364C1228.82 56.364 1229.55 56.5567 1230.18 56.942C1230.8 57.3273 1231.28 57.8543 1231.62 58.523C1231.97 59.1917 1232.15 59.951 1232.15 60.801C1232.15 61.651 1231.97 62.4103 1231.62 63.079C1231.28 63.7363 1230.79 64.2577 1230.16 64.643C1229.54 65.017 1228.81 65.204 1227.97 65.204ZM1227.81 63.963C1228.38 63.963 1228.88 63.8327 1229.31 63.572C1229.74 63.3 1230.08 62.926 1230.33 62.45C1230.58 61.974 1230.7 61.4187 1230.7 60.784C1230.7 60.1493 1230.58 59.594 1230.33 59.118C1230.08 58.642 1229.74 58.2737 1229.31 58.013C1228.88 57.741 1228.38 57.605 1227.81 57.605C1227.25 57.605 1226.75 57.741 1226.32 58.013C1225.89 58.2737 1225.55 58.642 1225.3 59.118C1225.05 59.594 1224.92 60.1493 1224.92 60.784C1224.92 61.4187 1225.05 61.974 1225.3 62.45C1225.55 62.926 1225.89 63.3 1226.32 63.572C1226.75 63.8327 1227.25 63.963 1227.81 63.963ZM1237.98 65.204C1237.19 65.204 1236.47 65.0227 1235.84 64.66C1235.2 64.2973 1234.7 63.7873 1234.32 63.13C1233.96 62.4613 1233.78 61.6793 1233.78 60.784C1233.78 59.8887 1233.97 59.1123 1234.34 58.455C1234.71 57.7863 1235.22 57.2707 1235.85 56.908C1236.5 56.5453 1237.22 56.364 1238.01 56.364C1238.81 56.364 1239.52 56.5453 1240.15 56.908C1240.79 57.2707 1241.29 57.7863 1241.65 58.455C1242.02 59.1123 1242.21 59.8887 1242.21 60.784C1242.21 61.6793 1242.02 62.4613 1241.65 63.13C1241.28 63.7873 1240.77 64.2973 1240.12 64.66C1239.49 65.0227 1238.77 65.204 1237.98 65.204ZM1237.98 63.98C1238.47 63.98 1238.92 63.861 1239.34 63.623C1239.76 63.385 1240.1 63.028 1240.36 62.552C1240.62 62.076 1240.75 61.4867 1240.75 60.784C1240.75 60.0813 1240.62 59.492 1240.36 59.016C1240.11 58.54 1239.78 58.183 1239.36 57.945C1238.94 57.707 1238.49 57.588 1238.01 57.588C1237.53 57.588 1237.07 57.707 1236.65 57.945C1236.23 58.183 1235.89 58.54 1235.63 59.016C1235.37 59.492 1235.24 60.0813 1235.24 60.784C1235.24 61.4867 1235.37 62.076 1235.63 62.552C1235.89 63.028 1236.23 63.385 1236.64 63.623C1237.06 63.861 1237.5 63.98 1237.98 63.98ZM1247.27 65.204C1246.28 65.204 1245.48 64.9037 1244.89 64.303C1244.31 63.691 1244.01 62.756 1244.01 61.498V56.568H1245.44V61.345C1245.44 63.1017 1246.16 63.98 1247.6 63.98C1248.33 63.98 1248.94 63.7193 1249.42 63.198C1249.9 62.6653 1250.15 61.9117 1250.15 60.937V56.568H1251.58V65H1250.28L1250.18 63.487C1249.92 64.0197 1249.53 64.439 1249.01 64.745C1248.5 65.051 1247.92 65.204 1247.27 65.204ZM1257.26 65C1256.49 65 1255.88 64.813 1255.44 64.439C1255 64.065 1254.78 63.3907 1254.78 62.416V57.775H1253.31V56.568H1254.78L1254.96 54.545H1256.2V56.568H1258.69V57.775H1256.2V62.416C1256.2 62.9487 1256.31 63.3113 1256.53 63.504C1256.74 63.6853 1257.12 63.776 1257.67 63.776H1258.55V65H1257.26Z" fill="white"/>
<path d="M1308.86 66.216C1307.62 66.216 1306.55 65.946 1305.65 65.406C1304.77 64.854 1304.08 64.092 1303.58 63.12C1303.09 62.136 1302.85 60.996 1302.85 59.7C1302.85 58.416 1303.09 57.288 1303.58 56.316C1304.08 55.332 1304.77 54.564 1305.65 54.012C1306.55 53.46 1307.62 53.184 1308.86 53.184C1310.3 53.184 1311.47 53.532 1312.37 54.228C1313.28 54.912 1313.86 55.872 1314.11 57.108H1312.44C1312.25 56.328 1311.85 55.704 1311.25 55.236C1310.66 54.756 1309.87 54.516 1308.86 54.516C1307.96 54.516 1307.17 54.726 1306.5 55.146C1305.83 55.554 1305.31 56.148 1304.93 56.928C1304.57 57.696 1304.39 58.62 1304.39 59.7C1304.39 60.78 1304.57 61.71 1304.93 62.49C1305.31 63.258 1305.83 63.852 1306.5 64.272C1307.17 64.68 1307.96 64.884 1308.86 64.884C1309.87 64.884 1310.66 64.656 1311.25 64.2C1311.85 63.732 1312.25 63.114 1312.44 62.346H1314.11C1313.86 63.558 1313.28 64.506 1312.37 65.19C1311.47 65.874 1310.3 66.216 1308.86 66.216ZM1320.27 66.216C1319.43 66.216 1318.67 66.024 1318 65.64C1317.33 65.256 1316.79 64.716 1316.4 64.02C1316.01 63.312 1315.82 62.484 1315.82 61.536C1315.82 60.588 1316.02 59.766 1316.41 59.07C1316.81 58.362 1317.34 57.816 1318.02 57.432C1318.7 57.048 1319.46 56.856 1320.3 56.856C1321.14 56.856 1321.9 57.048 1322.57 57.432C1323.24 57.816 1323.77 58.362 1324.15 59.07C1324.55 59.766 1324.75 60.588 1324.75 61.536C1324.75 62.484 1324.55 63.312 1324.15 64.02C1323.76 64.716 1323.22 65.256 1322.53 65.64C1321.86 66.024 1321.11 66.216 1320.27 66.216ZM1320.27 64.92C1320.78 64.92 1321.26 64.794 1321.71 64.542C1322.15 64.29 1322.51 63.912 1322.79 63.408C1323.06 62.904 1323.2 62.28 1323.2 61.536C1323.2 60.792 1323.06 60.168 1322.79 59.664C1322.52 59.16 1322.17 58.782 1321.72 58.53C1321.28 58.278 1320.81 58.152 1320.3 58.152C1319.79 58.152 1319.31 58.278 1318.86 58.53C1318.42 58.782 1318.06 59.16 1317.78 59.664C1317.51 60.168 1317.37 60.792 1317.37 61.536C1317.37 62.28 1317.51 62.904 1317.78 63.408C1318.06 63.912 1318.41 64.29 1318.84 64.542C1319.29 64.794 1319.76 64.92 1320.27 64.92ZM1326.85 66V57.072H1328.22L1328.31 58.674C1328.6 58.11 1329.01 57.666 1329.55 57.342C1330.09 57.018 1330.7 56.856 1331.39 56.856C1332.44 56.856 1333.28 57.18 1333.91 57.828C1334.54 58.464 1334.86 59.448 1334.86 60.78V66H1333.35V60.942C1333.35 59.082 1332.58 58.152 1331.04 58.152C1330.28 58.152 1329.63 58.434 1329.12 58.998C1328.61 59.55 1328.36 60.342 1328.36 61.374V66H1326.85ZM1340.68 66C1339.86 66 1339.22 65.802 1338.75 65.406C1338.28 65.01 1338.05 64.296 1338.05 63.264V58.35H1336.5V57.072H1338.05L1338.25 54.93H1339.56V57.072H1342.19V58.35H1339.56V63.264C1339.56 63.828 1339.68 64.212 1339.9 64.416C1340.13 64.608 1340.53 64.704 1341.11 64.704H1342.05V66H1340.68ZM1347.08 66.216C1346.34 66.216 1345.72 66.09 1345.23 65.838C1344.74 65.586 1344.37 65.25 1344.13 64.83C1343.89 64.41 1343.77 63.954 1343.77 63.462C1343.77 62.55 1344.12 61.848 1344.81 61.356C1345.51 60.864 1346.46 60.618 1347.66 60.618H1350.07V60.51C1350.07 59.73 1349.87 59.142 1349.46 58.746C1349.05 58.338 1348.5 58.134 1347.82 58.134C1347.23 58.134 1346.72 58.284 1346.29 58.584C1345.87 58.872 1345.61 59.298 1345.5 59.862H1343.95C1344.01 59.214 1344.23 58.668 1344.6 58.224C1344.98 57.78 1345.46 57.444 1346.02 57.216C1346.58 56.976 1347.18 56.856 1347.82 56.856C1349.07 56.856 1350 57.192 1350.63 57.864C1351.26 58.524 1351.58 59.406 1351.58 60.51V66H1350.23L1350.14 64.398C1349.89 64.902 1349.52 65.334 1349.03 65.694C1348.55 66.042 1347.9 66.216 1347.08 66.216ZM1347.32 64.938C1347.89 64.938 1348.38 64.788 1348.79 64.488C1349.21 64.188 1349.53 63.798 1349.75 63.318C1349.96 62.838 1350.07 62.334 1350.07 61.806V61.788H1347.78C1346.9 61.788 1346.27 61.944 1345.89 62.256C1345.53 62.556 1345.35 62.934 1345.35 63.39C1345.35 63.858 1345.52 64.236 1345.86 64.524C1346.21 64.8 1346.69 64.938 1347.32 64.938ZM1357.95 66.216C1357.1 66.216 1356.33 66.024 1355.65 65.64C1354.98 65.244 1354.44 64.698 1354.05 64.002C1353.66 63.294 1353.47 62.472 1353.47 61.536C1353.47 60.6 1353.66 59.784 1354.05 59.088C1354.44 58.38 1354.98 57.834 1355.65 57.45C1356.33 57.054 1357.1 56.856 1357.95 56.856C1359.01 56.856 1359.9 57.132 1360.62 57.684C1361.35 58.236 1361.81 58.974 1362 59.898H1360.46C1360.34 59.346 1360.04 58.92 1359.57 58.62C1359.11 58.308 1358.56 58.152 1357.94 58.152C1357.43 58.152 1356.96 58.278 1356.51 58.53C1356.07 58.782 1355.71 59.16 1355.43 59.664C1355.16 60.168 1355.02 60.792 1355.02 61.536C1355.02 62.28 1355.16 62.904 1355.43 63.408C1355.71 63.912 1356.07 64.296 1356.51 64.56C1356.96 64.812 1357.43 64.938 1357.94 64.938C1358.56 64.938 1359.11 64.788 1359.57 64.488C1360.04 64.176 1360.34 63.738 1360.46 63.174H1362C1361.82 64.074 1361.37 64.806 1360.64 65.37C1359.9 65.934 1359.01 66.216 1357.95 66.216ZM1367.4 66C1366.58 66 1365.94 65.802 1365.47 65.406C1365 65.01 1364.77 64.296 1364.77 63.264V58.35H1363.22V57.072H1364.77L1364.97 54.93H1366.28V57.072H1368.91V58.35H1366.28V63.264C1366.28 63.828 1366.39 64.212 1366.62 64.416C1366.85 64.608 1367.25 64.704 1367.83 64.704H1368.76V66H1367.4Z" fill="white"/>
<path d="M1097.26 65V53.1H1104.62V54.273H1098.69V58.421H1104.11V59.577H1098.69V63.827H1104.62V65H1097.26ZM1106.77 68.74V56.568H1108.06L1108.2 57.962C1108.47 57.554 1108.85 57.1857 1109.35 56.857C1109.86 56.5283 1110.51 56.364 1111.29 56.364C1112.13 56.364 1112.86 56.5567 1113.48 56.942C1114.11 57.3273 1114.59 57.8543 1114.93 58.523C1115.28 59.1917 1115.46 59.951 1115.46 60.801C1115.46 61.651 1115.28 62.4103 1114.93 63.079C1114.59 63.7363 1114.1 64.2577 1113.47 64.643C1112.84 65.017 1112.11 65.204 1111.27 65.204C1110.58 65.204 1109.96 65.0623 1109.42 64.779C1108.89 64.4957 1108.48 64.099 1108.2 63.589V68.74H1106.77ZM1111.12 63.963C1111.69 63.963 1112.19 63.8327 1112.62 63.572C1113.05 63.3 1113.39 62.926 1113.64 62.45C1113.89 61.974 1114.01 61.4187 1114.01 60.784C1114.01 60.1493 1113.89 59.594 1113.64 59.118C1113.39 58.642 1113.05 58.2737 1112.62 58.013C1112.19 57.741 1111.69 57.605 1111.12 57.605C1110.55 57.605 1110.06 57.741 1109.62 58.013C1109.19 58.2737 1108.85 58.642 1108.6 59.118C1108.36 59.594 1108.23 60.1493 1108.23 60.784C1108.23 61.4187 1108.36 61.974 1108.6 62.45C1108.85 62.926 1109.19 63.3 1109.62 63.572C1110.06 63.8327 1110.55 63.963 1111.12 63.963ZM1118.31 54.698C1118.03 54.698 1117.79 54.6073 1117.6 54.426C1117.42 54.2333 1117.32 53.9953 1117.32 53.712C1117.32 53.44 1117.42 53.2133 1117.6 53.032C1117.79 52.8507 1118.03 52.76 1118.31 52.76C1118.58 52.76 1118.81 52.8507 1119.01 53.032C1119.2 53.2133 1119.3 53.44 1119.3 53.712C1119.3 53.9953 1119.2 54.2333 1119.01 54.426C1118.81 54.6073 1118.58 54.698 1118.31 54.698ZM1117.6 65V56.568H1119.02V65H1117.6ZM1124.74 65.204C1123.73 65.204 1122.89 64.949 1122.22 64.439C1121.56 63.929 1121.17 63.2377 1121.05 62.365H1122.51C1122.6 62.807 1122.84 63.1923 1123.21 63.521C1123.6 63.8383 1124.11 63.997 1124.76 63.997C1125.36 63.997 1125.8 63.8723 1126.08 63.623C1126.37 63.3623 1126.51 63.0563 1126.51 62.705C1126.51 62.195 1126.32 61.855 1125.95 61.685C1125.59 61.515 1125.07 61.362 1124.4 61.226C1123.95 61.1353 1123.49 61.005 1123.04 60.835C1122.59 60.665 1122.21 60.427 1121.9 60.121C1121.6 59.8037 1121.44 59.39 1121.44 58.88C1121.44 58.1433 1121.71 57.5427 1122.26 57.078C1122.81 56.602 1123.56 56.364 1124.5 56.364C1125.4 56.364 1126.13 56.5907 1126.7 57.044C1127.27 57.486 1127.61 58.1207 1127.7 58.948H1126.29C1126.23 58.5173 1126.04 58.183 1125.73 57.945C1125.42 57.6957 1125.01 57.571 1124.49 57.571C1123.98 57.571 1123.58 57.6787 1123.3 57.894C1123.02 58.1093 1122.89 58.3927 1122.89 58.744C1122.89 59.084 1123.06 59.3503 1123.41 59.543C1123.78 59.7357 1124.26 59.9 1124.88 60.036C1125.4 60.1493 1125.89 60.291 1126.36 60.461C1126.83 60.6197 1127.22 60.8633 1127.51 61.192C1127.82 61.5093 1127.97 61.974 1127.97 62.586C1127.98 63.3453 1127.69 63.9743 1127.1 64.473C1126.53 64.9603 1125.74 65.204 1124.74 65.204ZM1133.85 65.204C1133.06 65.204 1132.35 65.0227 1131.71 64.66C1131.08 64.2973 1130.57 63.7873 1130.2 63.13C1129.84 62.4613 1129.65 61.6793 1129.65 60.784C1129.65 59.8887 1129.84 59.1123 1130.21 58.455C1130.59 57.7863 1131.09 57.2707 1131.73 56.908C1132.37 56.5453 1133.09 56.364 1133.89 56.364C1134.68 56.364 1135.39 56.5453 1136.03 56.908C1136.66 57.2707 1137.16 57.7863 1137.52 58.455C1137.9 59.1123 1138.09 59.8887 1138.09 60.784C1138.09 61.6793 1137.9 62.4613 1137.52 63.13C1137.15 63.7873 1136.64 64.2973 1135.99 64.66C1135.36 65.0227 1134.65 65.204 1133.85 65.204ZM1133.85 63.98C1134.34 63.98 1134.79 63.861 1135.21 63.623C1135.63 63.385 1135.97 63.028 1136.23 62.552C1136.49 62.076 1136.62 61.4867 1136.62 60.784C1136.62 60.0813 1136.49 59.492 1136.23 59.016C1135.98 58.54 1135.65 58.183 1135.23 57.945C1134.81 57.707 1134.36 57.588 1133.89 57.588C1133.4 57.588 1132.95 57.707 1132.53 57.945C1132.11 58.183 1131.77 58.54 1131.51 59.016C1131.25 59.492 1131.12 60.0813 1131.12 60.784C1131.12 61.4867 1131.25 62.076 1131.51 62.552C1131.77 63.028 1132.1 63.385 1132.51 63.623C1132.93 63.861 1133.38 63.98 1133.85 63.98ZM1143.9 65.204C1143.06 65.204 1142.32 65.0113 1141.69 64.626C1141.06 64.2407 1140.58 63.7137 1140.22 63.045C1139.88 62.3763 1139.71 61.617 1139.71 60.767C1139.71 59.917 1139.89 59.1633 1140.24 58.506C1140.59 57.8373 1141.08 57.316 1141.7 56.942C1142.33 56.5567 1143.06 56.364 1143.91 56.364C1144.6 56.364 1145.22 56.5057 1145.75 56.789C1146.28 57.0723 1146.7 57.469 1146.99 57.979V52.76H1148.42V65H1147.13L1146.99 63.606C1146.72 64.014 1146.33 64.3823 1145.82 64.711C1145.31 65.0397 1144.67 65.204 1143.9 65.204ZM1144.05 63.963C1144.62 63.963 1145.11 63.8327 1145.55 63.572C1145.99 63.3 1146.33 62.926 1146.57 62.45C1146.81 61.974 1146.94 61.4187 1146.94 60.784C1146.94 60.1493 1146.81 59.594 1146.57 59.118C1146.33 58.642 1145.99 58.2737 1145.55 58.013C1145.11 57.741 1144.62 57.605 1144.05 57.605C1143.49 57.605 1143 57.741 1142.55 58.013C1142.12 58.2737 1141.78 58.642 1141.53 59.118C1141.3 59.594 1141.18 60.1493 1141.18 60.784C1141.18 61.4187 1141.3 61.974 1141.53 62.45C1141.78 62.926 1142.12 63.3 1142.55 63.572C1143 63.8327 1143.49 63.963 1144.05 63.963ZM1154.54 65.204C1153.73 65.204 1153.02 65.0227 1152.4 64.66C1151.77 64.286 1151.28 63.7703 1150.92 63.113C1150.56 62.4557 1150.39 61.6793 1150.39 60.784C1150.39 59.9 1150.56 59.1293 1150.92 58.472C1151.27 57.8033 1151.75 57.2877 1152.38 56.925C1153.01 56.551 1153.74 56.364 1154.57 56.364C1155.39 56.364 1156.09 56.551 1156.68 56.925C1157.28 57.2877 1157.74 57.7693 1158.06 58.37C1158.37 58.9707 1158.53 59.6167 1158.53 60.308C1158.53 60.4327 1158.53 60.5573 1158.52 60.682C1158.52 60.8067 1158.52 60.9483 1158.52 61.107H1151.8C1151.83 61.753 1151.98 62.2913 1152.24 62.722C1152.51 63.1413 1152.85 63.4587 1153.25 63.674C1153.65 63.8893 1154.08 63.997 1154.54 63.997C1155.13 63.997 1155.62 63.861 1156.02 63.589C1156.41 63.317 1156.7 62.9487 1156.88 62.484H1158.29C1158.07 63.266 1157.63 63.9177 1156.99 64.439C1156.35 64.949 1155.53 65.204 1154.54 65.204ZM1154.54 57.571C1153.86 57.571 1153.25 57.7807 1152.72 58.2C1152.2 58.608 1151.9 59.2087 1151.82 60.002H1157.12C1157.09 59.2427 1156.83 58.6477 1156.34 58.217C1155.85 57.7863 1155.25 57.571 1154.54 57.571ZM1163.65 65.204C1162.65 65.204 1161.81 64.949 1161.14 64.439C1160.47 63.929 1160.08 63.2377 1159.97 62.365H1161.43C1161.52 62.807 1161.75 63.1923 1162.12 63.521C1162.51 63.8383 1163.03 63.997 1163.67 63.997C1164.27 63.997 1164.71 63.8723 1165 63.623C1165.28 63.3623 1165.42 63.0563 1165.42 62.705C1165.42 62.195 1165.24 61.855 1164.86 61.685C1164.5 61.515 1163.98 61.362 1163.31 61.226C1162.86 61.1353 1162.41 61.005 1161.95 60.835C1161.5 60.665 1161.12 60.427 1160.82 60.121C1160.51 59.8037 1160.36 59.39 1160.36 58.88C1160.36 58.1433 1160.63 57.5427 1161.17 57.078C1161.73 56.602 1162.48 56.364 1163.42 56.364C1164.31 56.364 1165.04 56.5907 1165.61 57.044C1166.19 57.486 1166.52 58.1207 1166.61 58.948H1165.2C1165.15 58.5173 1164.96 58.183 1164.64 57.945C1164.33 57.6957 1163.92 57.571 1163.4 57.571C1162.89 57.571 1162.49 57.6787 1162.21 57.894C1161.94 58.1093 1161.8 58.3927 1161.8 58.744C1161.8 59.084 1161.98 59.3503 1162.33 59.543C1162.69 59.7357 1163.18 59.9 1163.79 60.036C1164.31 60.1493 1164.81 60.291 1165.27 60.461C1165.75 60.6197 1166.13 60.8633 1166.43 61.192C1166.73 61.5093 1166.88 61.974 1166.88 62.586C1166.9 63.3453 1166.61 63.9743 1166.02 64.473C1165.44 64.9603 1164.65 65.204 1163.65 65.204Z" fill="white"/>
<defs>
<clipPath id="clip0_2_3">
<rect width="160" height="33" fill="white" transform="translate(50 43)"/>
</clipPath>
</defs>
</svg>
