<svg width="289" height="72" viewBox="0 0 289 72" fill="none" xmlns="http://www.w3.org/2000/svg">
<g clip-path="url(#clip0_2_23)">
<path d="M86.6592 70C94.3912 70 100.659 63.732 100.659 56C100.659 48.268 94.3912 42 86.6592 42C78.9272 42 72.6592 48.268 72.6592 56C72.6592 63.732 78.9272 70 86.6592 70Z" fill="white"/>
<path d="M87.1863 40C78.6106 40 71.6592 47.1633 71.6592 56C71.6592 64.8366 78.6106 72 87.1863 72C95.7621 72 102.713 64.8366 102.713 56C102.713 47.1633 95.7621 40 87.1863 40ZM91.9963 56.148C91.9963 53.4927 89.9072 51.3397 87.3299 51.3397C84.7531 51.3397 82.664 53.4923 82.664 56.148C82.664 58.8033 84.7531 60.9559 87.3299 60.9559V63.7036C83.2806 63.7036 79.9975 60.321 79.9975 56.148C79.9975 51.9751 83.2802 48.5924 87.3299 48.5924C91.3797 48.5924 94.6625 51.9751 94.6625 56.148H91.9963ZM96.4955 56.148C96.4955 50.9321 92.3922 46.7036 87.3299 46.7036C82.2682 46.7036 78.1648 50.9321 78.1648 56.148C78.1648 61.3638 82.2682 65.592 87.3299 65.592V68.7404C80.581 68.7404 75.1094 63.1024 75.1094 56.148C75.1094 49.1933 80.581 43.5556 87.3299 43.5556C94.0793 43.5556 99.5506 49.1933 99.5506 56.148H96.4955Z" fill="#F43E37"/>
</g>
<g clip-path="url(#clip1_2_23)">
<path fill-rule="evenodd" clip-rule="evenodd" d="M200.367 67.7357C200.056 68.5258 199.338 69.6383 198.32 70.4219C197.733 70.8745 197.031 71.3072 196.068 71.5927C195.04 71.8971 193.775 72 192.2 72H177.8C176.225 72 174.96 71.8971 173.933 71.5927C172.969 71.3072 172.267 70.8745 171.68 70.4219C170.662 69.6382 169.944 68.5258 169.633 67.7357C169.006 66.1438 169 64.3376 169 63.2V48.8C169 47.6624 169.006 45.8562 169.633 44.2643C169.944 43.4742 170.662 42.3617 171.68 41.5781C172.267 41.1255 172.969 40.6928 173.933 40.4073C174.96 40.1029 176.225 40 177.8 40H192.2C193.775 40 195.04 40.1029 196.068 40.4073C197.031 40.6928 197.733 41.1256 198.321 41.5781C199.338 42.3618 200.056 43.4742 200.367 44.2643C200.994 45.8562 201 47.6624 201 48.8V63.2C201 64.3375 200.994 66.1437 200.367 67.7357Z" fill="url(#paint0_linear_2_23)"/>
<path d="M187.321 58.3933C186.841 57.8867 185.997 57.5619 185.002 57.5619C184.006 57.5619 183.163 57.8867 182.682 58.3933C182.432 58.6577 182.299 58.9287 182.258 59.3148C182.177 60.0625 182.222 60.7062 182.31 61.7354C182.393 62.7161 182.552 64.024 182.758 65.356C182.906 66.3039 183.025 66.8155 183.134 67.1819C183.31 67.7756 183.97 68.2949 185.002 68.2949C186.033 68.2949 186.693 67.7755 186.869 67.1819C186.978 66.8155 187.098 66.3039 187.245 65.356C187.452 64.024 187.61 62.7161 187.694 61.7354C187.781 60.7061 187.827 60.0623 187.746 59.3148C187.704 58.9289 187.571 58.6577 187.321 58.3933ZM182.385 53.8822C182.385 55.3285 183.558 56.501 185.004 56.501C186.451 56.501 187.623 55.3285 187.623 53.8822C187.623 52.4358 186.451 51.2633 185.004 51.2633C183.558 51.2633 182.385 52.4358 182.385 53.8822ZM184.972 43.547C178.847 43.5645 173.828 48.5334 173.752 54.658C173.691 59.6193 176.858 63.8632 181.28 65.4188C181.387 65.4565 181.496 65.3674 181.479 65.2549C181.421 64.8696 181.367 64.4825 181.317 64.1019C181.299 63.9674 181.213 63.8514 181.089 63.7971C177.593 62.27 175.153 58.7644 175.192 54.7037C175.243 49.3748 179.595 45.0304 184.924 44.9873C190.371 44.9433 194.817 49.3622 194.817 54.8C194.817 58.82 192.387 62.2826 188.919 63.7975C188.795 63.8518 188.71 63.9681 188.692 64.1026C188.642 64.483 188.587 64.87 188.529 65.2549C188.512 65.3674 188.621 65.4565 188.729 65.4189C193.109 63.8782 196.257 59.7003 196.257 54.8001C196.257 48.5842 191.191 43.5292 184.972 43.547ZM184.768 48.7095C188.24 48.5751 191.108 51.3607 191.108 54.8034C191.108 56.5543 190.366 58.1351 189.181 59.2483C189.08 59.3427 189.026 59.4767 189.034 59.6144C189.057 60.0332 189.049 60.4402 189.021 60.8998C189.013 61.0222 189.151 61.1004 189.252 61.0314C191.24 59.6727 192.548 57.3881 192.548 54.8034C192.548 50.5478 189.003 47.1044 184.711 47.2707C180.723 47.4254 177.523 50.7139 177.471 54.7053C177.438 57.3303 178.754 59.6559 180.767 61.0316C180.869 61.1007 181.005 61.0224 180.998 60.9C180.97 60.4402 180.961 60.0332 180.985 59.6144C180.993 59.4768 180.939 59.3428 180.838 59.2486C179.616 58.1007 178.865 56.4558 178.913 54.6398C178.997 51.444 181.574 48.8333 184.768 48.7095Z" fill="white"/>
</g>
<g clip-path="url(#clip2_2_23)">
<path d="M151.659 56C151.659 64.8889 144.527 72 135.892 72C127.258 72 120 64.8889 120 56C120 47.1111 127.133 40 135.767 40C144.402 40 151.659 47.1111 151.659 56Z" fill="url(#paint1_linear_2_23)"/>
<path d="M124.67 57.069C124.676 57.0161 124.714 56.9789 124.761 56.9789C124.806 56.9789 124.844 57.0161 124.851 57.0687L125.048 58.3457L124.851 59.601C124.844 59.6536 124.807 59.6902 124.761 59.6902C124.714 59.6902 124.676 59.6533 124.67 59.6005L124.504 58.3457L124.67 57.069Z" fill="white"/>
<path d="M125.598 56.1888C125.646 56.1888 125.685 56.2267 125.693 56.2815L125.946 58.3458L125.692 60.3649C125.685 60.4196 125.646 60.4576 125.598 60.4576C125.55 60.4576 125.51 60.4185 125.504 60.3644L125.281 58.3458L125.504 56.2815C125.511 56.2279 125.55 56.1888 125.598 56.1888Z" fill="white"/>
<path d="M129.03 54.5498C129.035 54.4534 129.11 54.3774 129.202 54.3774C129.292 54.3774 129.368 54.4534 129.373 54.5498L129.574 58.3476L129.373 60.8022V60.8015C129.368 60.8977 129.292 60.9736 129.202 60.9736C129.11 60.9736 129.035 60.8979 129.03 60.802L128.853 58.3476L129.03 54.5498Z" fill="white"/>
<path d="M127.252 55.8302C127.258 55.7543 127.315 55.6975 127.385 55.6975C127.455 55.6975 127.512 55.7543 127.518 55.8297L127.745 58.3466L127.518 60.7812C127.512 60.8566 127.455 60.9135 127.385 60.9135C127.315 60.9135 127.258 60.8566 127.252 60.7812L127.052 58.3466L127.252 55.8302Z" fill="white"/>
<path d="M131.256 60.7619C131.252 60.8806 131.16 60.9733 131.047 60.9733C130.932 60.9733 130.84 60.8803 130.837 60.7627L130.682 58.3485L130.837 53.2928C130.84 53.1741 130.933 53.0812 131.047 53.0812C131.16 53.0812 131.252 53.1739 131.257 53.2925L131.43 58.3488L131.256 60.7619Z" fill="white"/>
<path d="M135.112 60.6944C135.109 60.8545 134.981 60.9848 134.825 60.9848C134.669 60.9848 134.54 60.8545 134.537 60.6958C134.537 60.6958 134.429 58.3522 134.429 58.3485L134.537 52.511C134.54 52.3506 134.669 52.2203 134.825 52.2203C134.981 52.2203 135.11 52.3509 135.112 52.5108L135.234 58.3504L135.112 60.6944Z" fill="white"/>
<path d="M133.17 60.724C133.167 60.8649 133.057 60.9754 132.921 60.9754C132.785 60.9754 132.676 60.8649 132.673 60.7255L132.541 58.3495L132.672 53.2563C132.675 53.1154 132.785 53.0051 132.921 53.0051C133.057 53.0051 133.166 53.1154 133.17 53.2563L133.318 58.3492L133.17 60.7257V60.724Z" fill="white"/>
<path d="M128.442 60.8012C128.436 60.8875 128.371 60.953 128.29 60.953C128.208 60.953 128.143 60.8875 128.138 60.8009L127.949 58.3463L128.138 56.0121C128.143 55.9253 128.208 55.8597 128.29 55.8597C128.371 55.8597 128.436 55.9248 128.442 56.011L128.656 58.3463L128.442 60.8012Z" fill="white"/>
<path d="M126.602 60.7063C126.595 60.7716 126.547 60.8188 126.488 60.8188C126.428 60.8188 126.38 60.7713 126.375 60.7059L126.163 58.3461L126.375 55.8969C126.381 55.8317 126.428 55.7842 126.488 55.7842C126.547 55.7842 126.595 55.8315 126.602 55.8969L126.842 58.3461L126.602 60.7063Z" fill="white"/>
<path d="M133.601 53.4426C133.604 53.2903 133.722 53.1714 133.869 53.1714C134.016 53.1714 134.134 53.2903 134.137 53.4421L134.272 58.3499L134.137 60.7111V60.7091C134.134 60.8613 134.016 60.98 133.869 60.98C133.722 60.98 133.604 60.8611 133.601 60.7108L133.481 58.3497L133.601 53.4426Z" fill="white"/>
<path d="M130.311 60.7863C130.307 60.8938 130.223 60.9782 130.121 60.9782C130.018 60.9782 129.934 60.8938 129.93 60.7873L129.764 58.3483L129.93 53.6817C129.934 53.5742 130.018 53.4899 130.121 53.4899C130.223 53.4899 130.306 53.5739 130.311 53.6817L130.499 58.3483L130.311 60.7863Z" fill="white"/>
<path d="M132.21 60.7478V60.7475C132.205 60.8764 132.105 60.9777 131.981 60.9777C131.856 60.9777 131.755 60.876 131.751 60.7476L131.608 58.3485L131.751 53.1221C131.754 52.9921 131.855 52.8905 131.981 52.8905C132.105 52.8905 132.206 52.9923 132.21 53.1221L132.371 58.3488L132.21 60.7465V60.7475C132.21 60.7472 132.21 60.747 132.21 60.7468V60.7478Z" fill="white"/>
<path d="M143.292 55.5558C143.623 55.4147 143.988 55.3364 144.369 55.3364C145.908 55.3364 147.155 56.6024 147.155 58.164C147.155 59.7255 145.908 60.9914 144.369 60.9914C144.319 60.9914 136.653 60.9875 136.646 60.9867C136.48 60.9696 136.348 60.8255 136.346 60.6525V51.6794C136.348 51.5145 136.404 51.4295 136.614 51.3469C137.155 51.1346 137.767 51.009 138.396 51.009C140.964 51.009 143.07 53.0078 143.292 55.5558Z" fill="white"/>
<path d="M135.469 51.982C135.471 51.8108 135.609 51.6714 135.776 51.6714C135.943 51.6714 136.08 51.8108 136.083 51.9816L136.219 58.351L136.083 60.6628V60.66C136.08 60.8314 135.943 60.9705 135.776 60.9705C135.609 60.9705 135.471 60.8314 135.469 60.6625L135.343 58.351L135.469 51.982Z" fill="white"/>
</g>
<g clip-path="url(#clip3_2_23)">
<path d="M233.938 70C241.704 70 248 63.704 248 55.9375C248 48.171 241.704 41.875 233.938 41.875C226.171 41.875 219.875 48.171 219.875 55.9375C219.875 63.704 226.171 70 233.938 70Z" fill="white" stroke="#363F46" stroke-width="2.42578" stroke-linecap="round"/>
<path d="M226.303 49.999C226.303 49.999 224.358 52.1928 224.358 56.0258C224.358 59.8588 226.303 61.9642 226.303 61.9642" fill="white"/>
<path d="M226.303 49.999C226.303 49.999 224.358 52.1928 224.358 56.0258C224.358 59.8588 226.303 61.9642 226.303 61.9642" stroke="#FC7E0F" stroke-width="2.42578" stroke-linecap="round"/>
<path d="M241.796 49.999C241.796 49.999 243.74 52.1928 243.74 56.0258C243.74 59.8588 241.796 61.9642 241.796 61.9642" fill="white"/>
<path d="M241.796 49.999C241.796 49.999 243.74 52.1928 243.74 56.0258C243.74 59.8588 241.796 61.9642 241.796 61.9642" stroke="#FC7E0F" stroke-width="2.42578" stroke-linecap="round"/>
<path d="M238.694 52.5625C238.694 52.5625 240.004 54.1938 239.972 56.0179C239.932 58.2116 238.71 59.417 238.71 59.417" fill="white"/>
<path d="M238.694 52.5625C238.694 52.5625 240.004 54.1938 239.972 56.0179C239.932 58.2116 238.71 59.417 238.71 59.417" stroke="#FC7E0F" stroke-width="2.42578" stroke-linecap="round"/>
<path d="M229.341 52.5625C229.341 52.5625 228.031 54.1938 228.063 56.0179C228.103 58.2116 229.325 59.417 229.325 59.417" fill="white"/>
<path d="M229.341 52.5625C229.341 52.5625 228.031 54.1938 228.063 56.0179C228.103 58.2116 229.325 59.417 229.325 59.417" stroke="#FC7E0F" stroke-width="2.42578" stroke-linecap="round"/>
<path d="M233.936 58.1206C235.141 58.1206 236.119 57.1433 236.119 55.9377C236.119 54.7322 235.141 53.7549 233.936 53.7549C232.73 53.7549 231.753 54.7322 231.753 55.9377C231.753 57.1433 232.73 58.1206 233.936 58.1206Z" fill="#363F46"/>
<path d="M234.305 57.9767L232.756 57.5605L230.178 67.1924L231.726 67.6085L234.305 57.9767Z" fill="#363F46"/>
<path d="M233.705 57.964L235.247 57.5547L237.812 67.1934L236.27 67.6027L233.705 57.964Z" fill="#363F46"/>
<path d="M232.273 63.1618L232.846 62.5752L236.816 66.4429L236.243 67.0296L232.273 63.1618Z" fill="#363F46"/>
<path d="M235.635 63.1825L235.117 62.6572L231.181 66.5659L231.699 67.0912L235.635 63.1825Z" fill="#363F46"/>
</g>
<g clip-path="url(#clip4_2_23)">
<path d="M37.9994 40.0527C29.1901 40.0527 22.0483 47.1943 22.0483 56.0036C22.0483 64.8133 29.1901 71.9543 37.9994 71.9543C46.8097 71.9543 53.9506 64.8133 53.9506 56.0036C53.9506 47.1948 46.8097 40.0535 37.9992 40.0535L37.9994 40.0527ZM45.3144 63.0584C45.0287 63.527 44.4154 63.6756 43.9468 63.388C40.2017 61.1004 35.487 60.5823 29.9346 61.8508C29.3996 61.9727 28.8662 61.6375 28.7443 61.1023C28.6219 60.567 28.9558 60.0337 29.4921 59.9118C35.5683 58.523 40.7803 59.1213 44.9849 61.6908C45.4535 61.9784 45.6021 62.5899 45.3144 63.0584ZM47.2668 58.7146C46.9068 59.3004 46.1411 59.4851 45.5563 59.1251C41.2687 56.4891 34.7329 55.7259 29.6615 57.2653C29.0038 57.464 28.3091 57.0933 28.1095 56.4367C27.9114 55.779 28.2822 55.0857 28.9388 54.8857C34.7318 53.128 41.9335 53.9794 46.8573 57.0051C47.4421 57.3651 47.6268 58.1308 47.2668 58.7148V58.7146ZM47.4344 54.192C42.2935 51.1384 33.8116 50.8577 28.9032 52.3474C28.115 52.5864 27.2815 52.1415 27.0426 51.3533C26.8038 50.5647 27.2483 49.7318 28.0371 49.4922C33.6716 47.7817 43.0382 48.1122 48.9571 51.6259C49.6676 52.0466 49.9 52.9623 49.479 53.6703C49.06 54.3792 48.1419 54.6129 47.4352 54.192H47.4344Z" fill="#1ED760"/>
</g>
<path d="M23.11 17V6.5H24.37V15.995H29.26V17H23.11ZM31.6809 7.91C31.4309 7.91 31.2209 7.83 31.0509 7.67C30.8909 7.5 30.8109 7.29 30.8109 7.04C30.8109 6.8 30.8909 6.6 31.0509 6.44C31.2209 6.28 31.4309 6.2 31.6809 6.2C31.9209 6.2 32.1259 6.28 32.2959 6.44C32.4659 6.6 32.5509 6.8 32.5509 7.04C32.5509 7.29 32.4659 7.5 32.2959 7.67C32.1259 7.83 31.9209 7.91 31.6809 7.91ZM31.0509 17V9.56H32.3109V17H31.0509ZM37.3547 17.18C36.4647 17.18 35.7247 16.955 35.1347 16.505C34.5447 16.055 34.1997 15.445 34.0997 14.675H35.3897C35.4697 15.065 35.6747 15.405 36.0047 15.695C36.3447 15.975 36.7997 16.115 37.3697 16.115C37.8997 16.115 38.2897 16.005 38.5397 15.785C38.7897 15.555 38.9147 15.285 38.9147 14.975C38.9147 14.525 38.7497 14.225 38.4197 14.075C38.0997 13.925 37.6447 13.79 37.0547 13.67C36.6547 13.59 36.2547 13.475 35.8547 13.325C35.4547 13.175 35.1197 12.965 34.8497 12.695C34.5797 12.415 34.4447 12.05 34.4447 11.6C34.4447 10.95 34.6847 10.42 35.1647 10.01C35.6547 9.59 36.3147 9.38 37.1447 9.38C37.9347 9.38 38.5797 9.58 39.0797 9.98C39.5897 10.37 39.8847 10.93 39.9647 11.66H38.7197C38.6697 11.28 38.5047 10.985 38.2247 10.775C37.9547 10.555 37.5897 10.445 37.1297 10.445C36.6797 10.445 36.3297 10.54 36.0797 10.73C35.8397 10.92 35.7197 11.17 35.7197 11.48C35.7197 11.78 35.8747 12.015 36.1847 12.185C36.5047 12.355 36.9347 12.5 37.4747 12.62C37.9347 12.72 38.3697 12.845 38.7797 12.995C39.1997 13.135 39.5397 13.35 39.7997 13.64C40.0697 13.92 40.2047 14.33 40.2047 14.87C40.2147 15.54 39.9597 16.095 39.4397 16.535C38.9297 16.965 38.2347 17.18 37.3547 17.18ZM44.6078 17C43.9278 17 43.3928 16.835 43.0028 16.505C42.6128 16.175 42.4178 15.58 42.4178 14.72V10.625H41.1278V9.56H42.4178L42.5828 7.775H43.6778V9.56H45.8678V10.625H43.6778V14.72C43.6778 15.19 43.7728 15.51 43.9628 15.68C44.1528 15.84 44.4878 15.92 44.9678 15.92H45.7478V17H44.6078ZM50.6085 17.18C49.8985 17.18 49.2685 17.02 48.7185 16.7C48.1685 16.37 47.7335 15.915 47.4135 15.335C47.1035 14.755 46.9485 14.07 46.9485 13.28C46.9485 12.5 47.1035 11.82 47.4135 11.24C47.7235 10.65 48.1535 10.195 48.7035 9.875C49.2635 9.545 49.9085 9.38 50.6385 9.38C51.3585 9.38 51.9785 9.545 52.4985 9.875C53.0285 10.195 53.4335 10.62 53.7135 11.15C53.9935 11.68 54.1335 12.25 54.1335 12.86C54.1335 12.97 54.1285 13.08 54.1185 13.19C54.1185 13.3 54.1185 13.425 54.1185 13.565H48.1935C48.2235 14.135 48.3535 14.61 48.5835 14.99C48.8235 15.36 49.1185 15.64 49.4685 15.83C49.8285 16.02 50.2085 16.115 50.6085 16.115C51.1285 16.115 51.5635 15.995 51.9135 15.755C52.2635 15.515 52.5185 15.19 52.6785 14.78H53.9235C53.7235 15.47 53.3385 16.045 52.7685 16.505C52.2085 16.955 51.4885 17.18 50.6085 17.18ZM50.6085 10.445C50.0085 10.445 49.4735 10.63 49.0035 11C48.5435 11.36 48.2785 11.89 48.2085 12.59H52.8885C52.8585 11.92 52.6285 11.395 52.1985 11.015C51.7685 10.635 51.2385 10.445 50.6085 10.445ZM55.8036 17V9.56H56.9436L57.0186 10.895C57.2586 10.425 57.6036 10.055 58.0536 9.785C58.5036 9.515 59.0136 9.38 59.5836 9.38C60.4636 9.38 61.1636 9.65 61.6836 10.19C62.2136 10.72 62.4786 11.54 62.4786 12.65V17H61.2186V12.785C61.2186 11.235 60.5786 10.46 59.2986 10.46C58.6586 10.46 58.1236 10.695 57.6936 11.165C57.2736 11.625 57.0636 12.285 57.0636 13.145V17H55.8036ZM71.7473 17.18C71.0473 17.18 70.4173 17.02 69.8573 16.7C69.2973 16.38 68.8523 15.93 68.5223 15.35C68.2023 14.76 68.0423 14.07 68.0423 13.28C68.0423 12.49 68.2073 11.805 68.5373 11.225C68.8673 10.635 69.3123 10.18 69.8723 9.86C70.4423 9.54 71.0773 9.38 71.7773 9.38C72.4773 9.38 73.1073 9.54 73.6673 9.86C74.2273 10.18 74.6673 10.635 74.9873 11.225C75.3173 11.805 75.4823 12.49 75.4823 13.28C75.4823 14.07 75.3173 14.76 74.9873 15.35C74.6573 15.93 74.2073 16.38 73.6373 16.7C73.0773 17.02 72.4473 17.18 71.7473 17.18ZM71.7473 16.1C72.1773 16.1 72.5773 15.995 72.9473 15.785C73.3173 15.575 73.6173 15.26 73.8473 14.84C74.0773 14.42 74.1923 13.9 74.1923 13.28C74.1923 12.66 74.0773 12.14 73.8473 11.72C73.6273 11.3 73.3323 10.985 72.9623 10.775C72.5923 10.565 72.1973 10.46 71.7773 10.46C71.3473 10.46 70.9473 10.565 70.5773 10.775C70.2073 10.985 69.9073 11.3 69.6773 11.72C69.4473 12.14 69.3323 12.66 69.3323 13.28C69.3323 13.9 69.4473 14.42 69.6773 14.84C69.9073 15.26 70.2023 15.575 70.5623 15.785C70.9323 15.995 71.3273 16.1 71.7473 16.1ZM77.2342 17V9.56H78.3742L78.4492 10.895C78.6892 10.425 79.0342 10.055 79.4842 9.785C79.9342 9.515 80.4442 9.38 81.0142 9.38C81.8942 9.38 82.5942 9.65 83.1142 10.19C83.6442 10.72 83.9092 11.54 83.9092 12.65V17H82.6492V12.785C82.6492 11.235 82.0092 10.46 80.7292 10.46C80.0892 10.46 79.5542 10.695 79.1242 11.165C78.7042 11.625 78.4942 12.285 78.4942 13.145V17H77.2342Z" fill="white"/>
<defs>
<linearGradient id="paint0_linear_2_23" x1="185" y1="40" x2="185" y2="72" gradientUnits="userSpaceOnUse">
<stop stop-color="#F452FF"/>
<stop offset="1" stop-color="#832BC1"/>
</linearGradient>
<linearGradient id="paint1_linear_2_23" x1="135.83" y1="40" x2="135.83" y2="72" gradientUnits="userSpaceOnUse">
<stop stop-color="#FF7602"/>
<stop offset="1" stop-color="#FF3502"/>
</linearGradient>
<clipPath id="clip0_2_23">
<rect width="32" height="32" fill="white" transform="translate(71 40)"/>
</clipPath>
<clipPath id="clip1_2_23">
<rect width="32" height="32" fill="white" transform="translate(169 40)"/>
</clipPath>
<clipPath id="clip2_2_23">
<rect width="32" height="32" fill="white" transform="translate(120 40)"/>
</clipPath>
<clipPath id="clip3_2_23">
<rect width="32" height="32" fill="white" transform="translate(218 40)"/>
</clipPath>
<clipPath id="clip4_2_23">
<rect width="32" height="32" fill="white" transform="translate(22 40)"/>
</clipPath>
</defs>
</svg>
