<svg width="1300" height="100" viewBox="0 0 1300 100" fill="none" xmlns="http://www.w3.org/2000/svg">
<path d="M4.736 54V9.2H10.112V49.712H30.976V54H4.736ZM51.481 54.768C48.8357 54.768 46.6383 54.32 44.889 53.424C43.1397 52.528 41.8383 51.3333 40.985 49.84C40.1317 48.3467 39.705 46.7253 39.705 44.976C39.705 41.7333 40.9423 39.2373 43.417 37.488C45.8917 35.7387 49.2623 34.864 53.529 34.864H62.105V34.48C62.105 31.7067 61.3797 29.616 59.929 28.208C58.4783 26.7573 56.537 26.032 54.105 26.032C52.0143 26.032 50.201 26.5653 48.665 27.632C47.1717 28.656 46.233 30.1707 45.849 32.176H40.345C40.5583 29.872 41.3263 27.9307 42.649 26.352C44.0143 24.7733 45.6997 23.5787 47.705 22.768C49.7103 21.9147 51.8437 21.488 54.105 21.488C58.5423 21.488 61.8703 22.6827 64.089 25.072C66.3503 27.4187 67.481 30.5547 67.481 34.48V54H62.681L62.361 48.304C61.465 50.096 60.1423 51.632 58.393 52.912C56.6863 54.1493 54.3823 54.768 51.481 54.768ZM52.313 50.224C54.361 50.224 56.1103 49.6907 57.561 48.624C59.0543 47.5573 60.185 46.1707 60.953 44.464C61.721 42.7573 62.105 40.9653 62.105 39.088V39.024H53.977C50.8197 39.024 48.5797 39.5787 47.257 40.688C45.977 41.7547 45.337 43.0987 45.337 44.72C45.337 46.384 45.9343 47.728 47.129 48.752C48.3663 49.7333 50.0943 50.224 52.313 50.224ZM90.095 54C87.1937 54 84.911 53.296 83.247 51.888C81.583 50.48 80.751 47.9413 80.751 44.272V26.8H75.247V22.256H80.751L81.455 14.64H86.127V22.256H95.471V26.8H86.127V44.272C86.127 46.2773 86.5323 47.6427 87.343 48.368C88.1537 49.0507 89.583 49.392 91.631 49.392H94.959V54H90.095ZM118.578 54.768C115.549 54.768 112.861 54.0853 110.514 52.72C108.167 51.312 106.311 49.3707 104.946 46.896C103.623 44.4213 102.962 41.4987 102.962 38.128C102.962 34.8 103.623 31.8987 104.946 29.424C106.269 26.9067 108.103 24.9653 110.45 23.6C112.839 22.192 115.591 21.488 118.706 21.488C121.778 21.488 124.423 22.192 126.642 23.6C128.903 24.9653 130.631 26.7787 131.826 29.04C133.021 31.3013 133.618 33.7333 133.618 36.336C133.618 36.8053 133.597 37.2747 133.554 37.744C133.554 38.2133 133.554 38.7467 133.554 39.344H108.274C108.402 41.776 108.957 43.8027 109.938 45.424C110.962 47.0027 112.221 48.1973 113.714 49.008C115.25 49.8187 116.871 50.224 118.578 50.224C120.797 50.224 122.653 49.712 124.146 48.688C125.639 47.664 126.727 46.2773 127.41 44.528H132.722C131.869 47.472 130.226 49.9253 127.794 51.888C125.405 53.808 122.333 54.768 118.578 54.768ZM118.578 26.032C116.018 26.032 113.735 26.8213 111.73 28.4C109.767 29.936 108.637 32.1973 108.338 35.184H128.306C128.178 32.3253 127.197 30.0853 125.362 28.464C123.527 26.8427 121.266 26.032 118.578 26.032ZM155.784 54.768C151.986 54.768 148.829 53.808 146.312 51.888C143.794 49.968 142.322 47.3653 141.896 44.08H147.4C147.741 45.744 148.616 47.1947 150.024 48.432C151.474 49.6267 153.416 50.224 155.848 50.224C158.109 50.224 159.773 49.7547 160.84 48.816C161.906 47.8347 162.44 46.6827 162.44 45.36C162.44 43.44 161.736 42.16 160.328 41.52C158.962 40.88 157.021 40.304 154.504 39.792C152.797 39.4507 151.09 38.96 149.384 38.32C147.677 37.68 146.248 36.784 145.096 35.632C143.944 34.4373 143.368 32.88 143.368 30.96C143.368 28.1867 144.392 25.9253 146.44 24.176C148.53 22.384 151.346 21.488 154.888 21.488C158.258 21.488 161.01 22.3413 163.144 24.048C165.32 25.712 166.578 28.1013 166.92 31.216H161.608C161.394 29.5947 160.69 28.336 159.496 27.44C158.344 26.5013 156.786 26.032 154.824 26.032C152.904 26.032 151.41 26.4373 150.344 27.248C149.32 28.0587 148.808 29.1253 148.808 30.448C148.808 31.728 149.469 32.7307 150.792 33.456C152.157 34.1813 153.992 34.8 156.296 35.312C158.258 35.7387 160.114 36.272 161.864 36.912C163.656 37.5093 165.106 38.4267 166.216 39.664C167.368 40.8587 167.944 42.608 167.944 44.912C167.986 47.7707 166.898 50.1387 164.68 52.016C162.504 53.8507 159.538 54.768 155.784 54.768ZM189.61 54C186.709 54 184.426 53.296 182.762 51.888C181.098 50.48 180.266 47.9413 180.266 44.272V26.8H174.762V22.256H180.266L180.97 14.64H185.642V22.256H194.986V26.8H185.642V44.272C185.642 46.2773 186.047 47.6427 186.858 48.368C187.669 49.0507 189.098 49.392 191.146 49.392H194.474V54H189.61ZM238.786 54.768C235.756 54.768 233.068 54.0853 230.722 52.72C228.375 51.312 226.519 49.3707 225.154 46.896C223.831 44.4213 223.17 41.4987 223.17 38.128C223.17 34.8 223.831 31.8987 225.154 29.424C226.476 26.9067 228.311 24.9653 230.658 23.6C233.047 22.192 235.799 21.488 238.914 21.488C241.986 21.488 244.631 22.192 246.85 23.6C249.111 24.9653 250.839 26.7787 252.034 29.04C253.228 31.3013 253.826 33.7333 253.826 36.336C253.826 36.8053 253.804 37.2747 253.762 37.744C253.762 38.2133 253.762 38.7467 253.762 39.344H228.482C228.61 41.776 229.164 43.8027 230.146 45.424C231.17 47.0027 232.428 48.1973 233.922 49.008C235.458 49.8187 237.079 50.224 238.786 50.224C241.004 50.224 242.86 49.712 244.354 48.688C245.847 47.664 246.935 46.2773 247.618 44.528H252.93C252.076 47.472 250.434 49.9253 248.002 51.888C245.612 53.808 242.54 54.768 238.786 54.768ZM238.786 26.032C236.226 26.032 233.943 26.8213 231.938 28.4C229.975 29.936 228.844 32.1973 228.546 35.184H248.514C248.386 32.3253 247.404 30.0853 245.57 28.464C243.735 26.8427 241.474 26.032 238.786 26.032ZM263.831 68.08V22.256H268.695L269.207 27.504C270.231 25.968 271.682 24.5813 273.559 23.344C275.479 22.1067 277.911 21.488 280.855 21.488C284.012 21.488 286.764 22.2133 289.111 23.664C291.458 25.1147 293.271 27.0987 294.551 29.616C295.874 32.1333 296.535 34.992 296.535 38.192C296.535 41.392 295.874 44.2507 294.551 46.768C293.271 49.2427 291.436 51.2053 289.047 52.656C286.7 54.064 283.948 54.768 280.791 54.768C278.188 54.768 275.863 54.2347 273.815 53.168C271.81 52.1013 270.274 50.608 269.207 48.688V68.08H263.831ZM280.215 50.096C282.348 50.096 284.226 49.6053 285.847 48.624C287.468 47.6 288.748 46.192 289.687 44.4C290.626 42.608 291.095 40.5173 291.095 38.128C291.095 35.7387 290.626 33.648 289.687 31.856C288.748 30.064 287.468 28.6773 285.847 27.696C284.226 26.672 282.348 26.16 280.215 26.16C278.082 26.16 276.204 26.672 274.583 27.696C272.962 28.6773 271.682 30.064 270.743 31.856C269.804 33.648 269.335 35.7387 269.335 38.128C269.335 40.5173 269.804 42.608 270.743 44.4C271.682 46.192 272.962 47.6 274.583 48.624C276.204 49.6053 278.082 50.096 280.215 50.096ZM310.163 15.216C309.096 15.216 308.2 14.8747 307.475 14.192C306.792 13.4667 306.451 12.5707 306.451 11.504C306.451 10.48 306.792 9.62666 307.475 8.944C308.2 8.26133 309.096 7.92 310.163 7.92C311.187 7.92 312.061 8.26133 312.787 8.944C313.512 9.62666 313.875 10.48 313.875 11.504C313.875 12.5707 313.512 13.4667 312.787 14.192C312.061 14.8747 311.187 15.216 310.163 15.216ZM307.475 54V22.256H312.851V54H307.475ZM337.251 54.768C333.454 54.768 330.296 53.808 327.779 51.888C325.262 49.968 323.79 47.3653 323.363 44.08H328.867C329.208 45.744 330.083 47.1947 331.491 48.432C332.942 49.6267 334.883 50.224 337.315 50.224C339.576 50.224 341.24 49.7547 342.307 48.816C343.374 47.8347 343.907 46.6827 343.907 45.36C343.907 43.44 343.203 42.16 341.795 41.52C340.43 40.88 338.488 40.304 335.971 39.792C334.264 39.4507 332.558 38.96 330.851 38.32C329.144 37.68 327.715 36.784 326.563 35.632C325.411 34.4373 324.835 32.88 324.835 30.96C324.835 28.1867 325.859 25.9253 327.907 24.176C329.998 22.384 332.814 21.488 336.355 21.488C339.726 21.488 342.478 22.3413 344.611 24.048C346.787 25.712 348.046 28.1013 348.387 31.216H343.075C342.862 29.5947 342.158 28.336 340.963 27.44C339.811 26.5013 338.254 26.032 336.291 26.032C334.371 26.032 332.878 26.4373 331.811 27.248C330.787 28.0587 330.275 29.1253 330.275 30.448C330.275 31.728 330.936 32.7307 332.259 33.456C333.624 34.1813 335.459 34.8 337.763 35.312C339.726 35.7387 341.582 36.272 343.331 36.912C345.123 37.5093 346.574 38.4267 347.683 39.664C348.835 40.8587 349.411 42.608 349.411 44.912C349.454 47.7707 348.366 50.1387 346.147 52.016C343.971 53.8507 341.006 54.768 337.251 54.768ZM374.435 54.768C371.448 54.768 368.76 54.0853 366.371 52.72C363.982 51.3547 362.083 49.4347 360.675 46.96C359.31 44.4427 358.627 41.4987 358.627 38.128C358.627 34.7573 359.331 31.8347 360.739 29.36C362.147 26.8427 364.046 24.9013 366.435 23.536C368.867 22.1707 371.576 21.488 374.563 21.488C377.55 21.488 380.238 22.1707 382.627 23.536C385.016 24.9013 386.894 26.8427 388.259 29.36C389.667 31.8347 390.371 34.7573 390.371 38.128C390.371 41.4987 389.667 44.4427 388.259 46.96C386.851 49.4347 384.931 51.3547 382.499 52.72C380.11 54.0853 377.422 54.768 374.435 54.768ZM374.435 50.16C376.27 50.16 377.976 49.712 379.555 48.816C381.134 47.92 382.414 46.576 383.395 44.784C384.376 42.992 384.867 40.7733 384.867 38.128C384.867 35.4827 384.376 33.264 383.395 31.472C382.456 29.68 381.198 28.336 379.619 27.44C378.04 26.544 376.355 26.096 374.563 26.096C372.728 26.096 371.022 26.544 369.443 27.44C367.864 28.336 366.584 29.68 365.603 31.472C364.622 33.264 364.131 35.4827 364.131 38.128C364.131 40.7733 364.622 42.992 365.603 44.784C366.584 46.576 367.843 47.92 369.379 48.816C370.958 49.712 372.643 50.16 374.435 50.16ZM415.126 54.768C411.969 54.768 409.195 54.0427 406.806 52.592C404.459 51.1413 402.625 49.1573 401.302 46.64C400.022 44.1227 399.382 41.264 399.382 38.064C399.382 34.864 400.043 32.0267 401.366 29.552C402.689 27.0347 404.523 25.072 406.87 23.664C409.217 22.2133 411.99 21.488 415.19 21.488C417.793 21.488 420.097 22.0213 422.102 23.088C424.107 24.1547 425.665 25.648 426.774 27.568V7.92H432.15V54H427.286L426.774 48.752C425.75 50.288 424.278 51.6747 422.358 52.912C420.438 54.1493 418.027 54.768 415.126 54.768ZM415.702 50.096C417.835 50.096 419.713 49.6053 421.334 48.624C422.998 47.6 424.278 46.192 425.174 44.4C426.113 42.608 426.582 40.5173 426.582 38.128C426.582 35.7387 426.113 33.648 425.174 31.856C424.278 30.064 422.998 28.6773 421.334 27.696C419.713 26.672 417.835 26.16 415.702 26.16C413.611 26.16 411.734 26.672 410.07 27.696C408.449 28.6773 407.169 30.064 406.23 31.856C405.334 33.648 404.886 35.7387 404.886 38.128C404.886 40.5173 405.334 42.608 406.23 44.4C407.169 46.192 408.449 47.6 410.07 48.624C411.734 49.6053 413.611 50.096 415.702 50.096ZM458.066 54.768C455.036 54.768 452.348 54.0853 450.002 52.72C447.655 51.312 445.799 49.3707 444.434 46.896C443.111 44.4213 442.45 41.4987 442.45 38.128C442.45 34.8 443.111 31.8987 444.434 29.424C445.756 26.9067 447.591 24.9653 449.938 23.6C452.327 22.192 455.079 21.488 458.194 21.488C461.266 21.488 463.911 22.192 466.13 23.6C468.391 24.9653 470.119 26.7787 471.314 29.04C472.508 31.3013 473.106 33.7333 473.106 36.336C473.106 36.8053 473.084 37.2747 473.042 37.744C473.042 38.2133 473.042 38.7467 473.042 39.344H447.762C447.89 41.776 448.444 43.8027 449.426 45.424C450.45 47.0027 451.708 48.1973 453.202 49.008C454.738 49.8187 456.359 50.224 458.066 50.224C460.284 50.224 462.14 49.712 463.634 48.688C465.127 47.664 466.215 46.2773 466.898 44.528H472.21C471.356 47.472 469.714 49.9253 467.282 51.888C464.892 53.808 461.82 54.768 458.066 54.768ZM458.066 26.032C455.506 26.032 453.223 26.8213 451.218 28.4C449.255 29.936 448.124 32.1973 447.826 35.184H467.794C467.666 32.3253 466.684 30.0853 464.85 28.464C463.015 26.8427 460.754 26.032 458.066 26.032ZM495.271 54.768C491.474 54.768 488.316 53.808 485.799 51.888C483.282 49.968 481.81 47.3653 481.383 44.08H486.887C487.228 45.744 488.103 47.1947 489.511 48.432C490.962 49.6267 492.903 50.224 495.335 50.224C497.596 50.224 499.26 49.7547 500.327 48.816C501.394 47.8347 501.927 46.6827 501.927 45.36C501.927 43.44 501.223 42.16 499.815 41.52C498.45 40.88 496.508 40.304 493.991 39.792C492.284 39.4507 490.578 38.96 488.871 38.32C487.164 37.68 485.735 36.784 484.583 35.632C483.431 34.4373 482.855 32.88 482.855 30.96C482.855 28.1867 483.879 25.9253 485.927 24.176C488.018 22.384 490.834 21.488 494.375 21.488C497.746 21.488 500.498 22.3413 502.631 24.048C504.807 25.712 506.066 28.1013 506.407 31.216H501.095C500.882 29.5947 500.178 28.336 498.983 27.44C497.831 26.5013 496.274 26.032 494.311 26.032C492.391 26.032 490.898 26.4373 489.831 27.248C488.807 28.0587 488.295 29.1253 488.295 30.448C488.295 31.728 488.956 32.7307 490.279 33.456C491.644 34.1813 493.479 34.8 495.783 35.312C497.746 35.7387 499.602 36.272 501.351 36.912C503.143 37.5093 504.594 38.4267 505.703 39.664C506.855 40.8587 507.431 42.608 507.431 44.912C507.474 47.7707 506.386 50.1387 504.167 52.016C501.991 53.8507 499.026 54.768 495.271 54.768Z" fill="white"/>
<path d="M1122 30C1122 26.6863 1124.69 24 1128 24H1294C1297.31 24 1300 26.6863 1300 30V69C1300 72.3137 1297.31 75 1294 75H1128C1124.69 75 1122 72.3137 1122 69V30Z" fill="#118DA8"/>
<path d="M1146.85 55L1142.37 43.1H1143.92L1147.68 53.487L1151.47 43.1H1152.98L1148.51 55H1146.85ZM1155.4 44.698C1155.11 44.698 1154.87 44.6073 1154.68 44.426C1154.5 44.2333 1154.41 43.9953 1154.41 43.712C1154.41 43.44 1154.5 43.2133 1154.68 43.032C1154.87 42.8507 1155.11 42.76 1155.4 42.76C1155.67 42.76 1155.9 42.8507 1156.09 43.032C1156.29 43.2133 1156.38 43.44 1156.38 43.712C1156.38 43.9953 1156.29 44.2333 1156.09 44.426C1155.9 44.6073 1155.67 44.698 1155.4 44.698ZM1154.68 55V46.568H1156.11V55H1154.68ZM1162.39 55.204C1161.58 55.204 1160.87 55.0227 1160.24 54.66C1159.62 54.286 1159.13 53.7703 1158.77 53.113C1158.41 52.4557 1158.24 51.6793 1158.24 50.784C1158.24 49.9 1158.41 49.1293 1158.77 48.472C1159.12 47.8033 1159.6 47.2877 1160.23 46.925C1160.86 46.551 1161.59 46.364 1162.42 46.364C1163.24 46.364 1163.94 46.551 1164.53 46.925C1165.13 47.2877 1165.59 47.7693 1165.91 48.37C1166.22 48.9707 1166.38 49.6167 1166.38 50.308C1166.38 50.4327 1166.38 50.5573 1166.36 50.682C1166.36 50.8067 1166.36 50.9483 1166.36 51.107H1159.65C1159.68 51.753 1159.83 52.2913 1160.09 52.722C1160.36 53.1413 1160.7 53.4587 1161.09 53.674C1161.5 53.8893 1161.93 53.997 1162.39 53.997C1162.98 53.997 1163.47 53.861 1163.87 53.589C1164.26 53.317 1164.55 52.9487 1164.73 52.484H1166.14C1165.92 53.266 1165.48 53.9177 1164.83 54.439C1164.2 54.949 1163.38 55.204 1162.39 55.204ZM1162.39 47.571C1161.71 47.571 1161.1 47.7807 1160.57 48.2C1160.05 48.608 1159.75 49.2087 1159.67 50.002H1164.97C1164.94 49.2427 1164.68 48.6477 1164.19 48.217C1163.7 47.7863 1163.1 47.571 1162.39 47.571ZM1169.64 55L1167.18 46.568H1168.61L1170.39 53.181L1172.36 46.568H1173.98L1175.97 53.181L1177.73 46.568H1179.18L1176.71 55H1175.25L1173.18 48.047L1171.1 55H1169.64ZM1188.06 55.204C1187.36 55.204 1186.78 55.085 1186.31 54.847C1185.85 54.609 1185.5 54.2917 1185.27 53.895C1185.05 53.4983 1184.93 53.0677 1184.93 52.603C1184.93 51.7417 1185.26 51.0787 1185.92 50.614C1186.58 50.1493 1187.47 49.917 1188.61 49.917H1190.88V49.815C1190.88 49.0783 1190.69 48.523 1190.31 48.149C1189.92 47.7637 1189.41 47.571 1188.76 47.571C1188.2 47.571 1187.72 47.7127 1187.31 47.996C1186.92 48.268 1186.67 48.6703 1186.57 49.203H1185.1C1185.16 48.591 1185.37 48.0753 1185.72 47.656C1186.08 47.2367 1186.53 46.9193 1187.06 46.704C1187.59 46.4773 1188.16 46.364 1188.76 46.364C1189.94 46.364 1190.82 46.6813 1191.41 47.316C1192.01 47.9393 1192.31 48.7723 1192.31 49.815V55H1191.04L1190.95 53.487C1190.71 53.963 1190.36 54.371 1189.9 54.711C1189.45 55.0397 1188.83 55.204 1188.06 55.204ZM1188.28 53.997C1188.83 53.997 1189.29 53.8553 1189.68 53.572C1190.07 53.2887 1190.37 52.9203 1190.58 52.467C1190.78 52.0137 1190.88 51.5377 1190.88 51.039V51.022H1188.73C1187.89 51.022 1187.29 51.1693 1186.94 51.464C1186.6 51.7473 1186.43 52.1043 1186.43 52.535C1186.43 52.977 1186.59 53.334 1186.91 53.606C1187.24 53.8667 1187.69 53.997 1188.28 53.997ZM1194.46 55V42.76H1195.88V55H1194.46ZM1198.22 55V42.76H1199.65V55H1198.22ZM1210.28 55.204C1209.48 55.204 1208.76 55.0227 1208.14 54.66C1207.52 54.286 1207.02 53.7703 1206.66 53.113C1206.31 52.4557 1206.13 51.6793 1206.13 50.784C1206.13 49.9 1206.31 49.1293 1206.66 48.472C1207.01 47.8033 1207.5 47.2877 1208.12 46.925C1208.76 46.551 1209.49 46.364 1210.32 46.364C1211.13 46.364 1211.84 46.551 1212.42 46.925C1213.03 47.2877 1213.48 47.7693 1213.8 48.37C1214.12 48.9707 1214.28 49.6167 1214.28 50.308C1214.28 50.4327 1214.27 50.5573 1214.26 50.682C1214.26 50.8067 1214.26 50.9483 1214.26 51.107H1207.55C1207.58 51.753 1207.73 52.2913 1207.99 52.722C1208.26 53.1413 1208.59 53.4587 1208.99 53.674C1209.4 53.8893 1209.83 53.997 1210.28 53.997C1210.87 53.997 1211.36 53.861 1211.76 53.589C1212.16 53.317 1212.45 52.9487 1212.63 52.484H1214.04C1213.81 53.266 1213.38 53.9177 1212.73 54.439C1212.1 54.949 1211.28 55.204 1210.28 55.204ZM1210.28 47.571C1209.6 47.571 1209 47.7807 1208.46 48.2C1207.94 48.608 1207.64 49.2087 1207.56 50.002H1212.87C1212.83 49.2427 1212.57 48.6477 1212.08 48.217C1211.6 47.7863 1211 47.571 1210.28 47.571ZM1216.17 58.74V46.568H1217.46L1217.6 47.962C1217.87 47.554 1218.26 47.1857 1218.75 46.857C1219.26 46.5283 1219.91 46.364 1220.69 46.364C1221.53 46.364 1222.26 46.5567 1222.89 46.942C1223.51 47.3273 1223.99 47.8543 1224.33 48.523C1224.68 49.1917 1224.86 49.951 1224.86 50.801C1224.86 51.651 1224.68 52.4103 1224.33 53.079C1223.99 53.7363 1223.5 54.2577 1222.87 54.643C1222.24 55.017 1221.51 55.204 1220.68 55.204C1219.98 55.204 1219.37 55.0623 1218.82 54.779C1218.29 54.4957 1217.88 54.099 1217.6 53.589V58.74H1216.17ZM1220.52 53.963C1221.09 53.963 1221.59 53.8327 1222.02 53.572C1222.45 53.3 1222.79 52.926 1223.04 52.45C1223.29 51.974 1223.41 51.4187 1223.41 50.784C1223.41 50.1493 1223.29 49.594 1223.04 49.118C1222.79 48.642 1222.45 48.2737 1222.02 48.013C1221.59 47.741 1221.09 47.605 1220.52 47.605C1219.96 47.605 1219.46 47.741 1219.03 48.013C1218.6 48.2737 1218.26 48.642 1218.01 49.118C1217.76 49.594 1217.63 50.1493 1217.63 50.784C1217.63 51.4187 1217.76 51.974 1218.01 52.45C1218.26 52.926 1218.6 53.3 1219.03 53.572C1219.46 53.8327 1219.96 53.963 1220.52 53.963ZM1227.71 44.698C1227.43 44.698 1227.19 44.6073 1227 44.426C1226.82 44.2333 1226.73 43.9953 1226.73 43.712C1226.73 43.44 1226.82 43.2133 1227 43.032C1227.19 42.8507 1227.43 42.76 1227.71 42.76C1227.98 42.76 1228.22 42.8507 1228.41 43.032C1228.6 43.2133 1228.7 43.44 1228.7 43.712C1228.7 43.9953 1228.6 44.2333 1228.41 44.426C1228.22 44.6073 1227.98 44.698 1227.71 44.698ZM1227 55V46.568H1228.43V55H1227ZM1234.14 55.204C1233.13 55.204 1232.29 54.949 1231.63 54.439C1230.96 53.929 1230.57 53.2377 1230.45 52.365H1231.92C1232.01 52.807 1232.24 53.1923 1232.61 53.521C1233 53.8383 1233.51 53.997 1234.16 53.997C1234.76 53.997 1235.2 53.8723 1235.49 53.623C1235.77 53.3623 1235.91 53.0563 1235.91 52.705C1235.91 52.195 1235.72 51.855 1235.35 51.685C1234.99 51.515 1234.47 51.362 1233.8 51.226C1233.35 51.1353 1232.9 51.005 1232.44 50.835C1231.99 50.665 1231.61 50.427 1231.3 50.121C1231 49.8037 1230.84 49.39 1230.84 48.88C1230.84 48.1433 1231.12 47.5427 1231.66 47.078C1232.22 46.602 1232.96 46.364 1233.9 46.364C1234.8 46.364 1235.53 46.5907 1236.1 47.044C1236.68 47.486 1237.01 48.1207 1237.1 48.948H1235.69C1235.63 48.5173 1235.45 48.183 1235.13 47.945C1234.82 47.6957 1234.41 47.571 1233.89 47.571C1233.38 47.571 1232.98 47.6787 1232.7 47.894C1232.43 48.1093 1232.29 48.3927 1232.29 48.744C1232.29 49.084 1232.46 49.3503 1232.82 49.543C1233.18 49.7357 1233.67 49.9 1234.28 50.036C1234.8 50.1493 1235.29 50.291 1235.76 50.461C1236.23 50.6197 1236.62 50.8633 1236.91 51.192C1237.22 51.5093 1237.37 51.974 1237.37 52.586C1237.38 53.3453 1237.09 53.9743 1236.51 54.473C1235.93 54.9603 1235.14 55.204 1234.14 55.204ZM1243.25 55.204C1242.46 55.204 1241.75 55.0227 1241.11 54.66C1240.48 54.2973 1239.97 53.7873 1239.6 53.13C1239.24 52.4613 1239.06 51.6793 1239.06 50.784C1239.06 49.8887 1239.24 49.1123 1239.62 48.455C1239.99 47.7863 1240.49 47.2707 1241.13 46.908C1241.78 46.5453 1242.49 46.364 1243.29 46.364C1244.08 46.364 1244.8 46.5453 1245.43 46.908C1246.06 47.2707 1246.56 47.7863 1246.93 48.455C1247.3 49.1123 1247.49 49.8887 1247.49 50.784C1247.49 51.6793 1247.3 52.4613 1246.93 53.13C1246.55 53.7873 1246.04 54.2973 1245.4 54.66C1244.76 55.0227 1244.05 55.204 1243.25 55.204ZM1243.25 53.98C1243.74 53.98 1244.19 53.861 1244.61 53.623C1245.03 53.385 1245.37 53.028 1245.63 52.552C1245.89 52.076 1246.03 51.4867 1246.03 50.784C1246.03 50.0813 1245.89 49.492 1245.63 49.016C1245.38 48.54 1245.05 48.183 1244.63 47.945C1244.21 47.707 1243.76 47.588 1243.29 47.588C1242.8 47.588 1242.35 47.707 1241.93 47.945C1241.51 48.183 1241.17 48.54 1240.91 49.016C1240.65 49.492 1240.52 50.0813 1240.52 50.784C1240.52 51.4867 1240.65 52.076 1240.91 52.552C1241.17 53.028 1241.5 53.385 1241.91 53.623C1242.33 53.861 1242.78 53.98 1243.25 53.98ZM1253.3 55.204C1252.46 55.204 1251.72 55.0113 1251.09 54.626C1250.46 54.2407 1249.98 53.7137 1249.63 53.045C1249.29 52.3763 1249.12 51.617 1249.12 50.767C1249.12 49.917 1249.29 49.1633 1249.64 48.506C1249.99 47.8373 1250.48 47.316 1251.1 46.942C1251.73 46.5567 1252.46 46.364 1253.31 46.364C1254.01 46.364 1254.62 46.5057 1255.15 46.789C1255.68 47.0723 1256.1 47.469 1256.39 47.979V42.76H1257.82V55H1256.53L1256.39 53.606C1256.12 54.014 1255.73 54.3823 1255.22 54.711C1254.71 55.0397 1254.07 55.204 1253.3 55.204ZM1253.45 53.963C1254.02 53.963 1254.52 53.8327 1254.95 53.572C1255.39 53.3 1255.73 52.926 1255.97 52.45C1256.22 51.974 1256.34 51.4187 1256.34 50.784C1256.34 50.1493 1256.22 49.594 1255.97 49.118C1255.73 48.642 1255.39 48.2737 1254.95 48.013C1254.52 47.741 1254.02 47.605 1253.45 47.605C1252.9 47.605 1252.4 47.741 1251.95 48.013C1251.52 48.2737 1251.18 48.642 1250.93 49.118C1250.7 49.594 1250.58 50.1493 1250.58 50.784C1250.58 51.4187 1250.7 51.974 1250.93 52.45C1251.18 52.926 1251.52 53.3 1251.95 53.572C1252.4 53.8327 1252.9 53.963 1253.45 53.963ZM1263.94 55.204C1263.13 55.204 1262.42 55.0227 1261.8 54.66C1261.17 54.286 1260.68 53.7703 1260.32 53.113C1259.97 52.4557 1259.79 51.6793 1259.79 50.784C1259.79 49.9 1259.97 49.1293 1260.32 48.472C1260.67 47.8033 1261.16 47.2877 1261.78 46.925C1262.41 46.551 1263.15 46.364 1263.97 46.364C1264.79 46.364 1265.49 46.551 1266.08 46.925C1266.68 47.2877 1267.14 47.7693 1267.46 48.37C1267.77 48.9707 1267.93 49.6167 1267.93 50.308C1267.93 50.4327 1267.93 50.5573 1267.92 50.682C1267.92 50.8067 1267.92 50.9483 1267.92 51.107H1261.2C1261.24 51.753 1261.38 52.2913 1261.64 52.722C1261.92 53.1413 1262.25 53.4587 1262.65 53.674C1263.05 53.8893 1263.49 53.997 1263.94 53.997C1264.53 53.997 1265.02 53.861 1265.42 53.589C1265.81 53.317 1266.1 52.9487 1266.28 52.484H1267.7C1267.47 53.266 1267.03 53.9177 1266.39 54.439C1265.75 54.949 1264.94 55.204 1263.94 55.204ZM1263.94 47.571C1263.26 47.571 1262.65 47.7807 1262.12 48.2C1261.6 48.608 1261.3 49.2087 1261.22 50.002H1266.52C1266.49 49.2427 1266.23 48.6477 1265.74 48.217C1265.25 47.7863 1264.65 47.571 1263.94 47.571ZM1273.06 55.204C1272.05 55.204 1271.21 54.949 1270.54 54.439C1269.87 53.929 1269.48 53.2377 1269.37 52.365H1270.83C1270.92 52.807 1271.15 53.1923 1271.53 53.521C1271.91 53.8383 1272.43 53.997 1273.07 53.997C1273.67 53.997 1274.12 53.8723 1274.4 53.623C1274.68 53.3623 1274.82 53.0563 1274.82 52.705C1274.82 52.195 1274.64 51.855 1274.26 51.685C1273.9 51.515 1273.38 51.362 1272.72 51.226C1272.26 51.1353 1271.81 51.005 1271.36 50.835C1270.9 50.665 1270.52 50.427 1270.22 50.121C1269.91 49.8037 1269.76 49.39 1269.76 48.88C1269.76 48.1433 1270.03 47.5427 1270.57 47.078C1271.13 46.602 1271.88 46.364 1272.82 46.364C1273.71 46.364 1274.44 46.5907 1275.01 47.044C1275.59 47.486 1275.92 48.1207 1276.01 48.948H1274.6C1274.55 48.5173 1274.36 48.183 1274.04 47.945C1273.74 47.6957 1273.32 47.571 1272.8 47.571C1272.29 47.571 1271.89 47.6787 1271.61 47.894C1271.34 48.1093 1271.2 48.3927 1271.2 48.744C1271.2 49.084 1271.38 49.3503 1271.73 49.543C1272.09 49.7357 1272.58 49.9 1273.19 50.036C1273.71 50.1493 1274.21 50.291 1274.67 50.461C1275.15 50.6197 1275.53 50.8633 1275.83 51.192C1276.13 51.5093 1276.29 51.974 1276.29 52.586C1276.3 53.3453 1276.01 53.9743 1275.42 54.473C1274.84 54.9603 1274.05 55.204 1273.06 55.204Z" fill="white"/>
</svg>
